<?xml version="1.0" encoding="utf-8"?>
<!-- Generator: Adobe Illustrator 23.0.3, SVG Export Plug-In . SVG Version: 6.00 Build 0)  -->
<svg width="200" height="50" version="1.1" id="Layer_1" xmlns="http://www.w3.org/2000/svg" xmlns:xlink="http://www.w3.org/1999/xlink" x="0px" y="0px"
	 viewBox="0 0 1830.8 1658.5" style="enable-background:new 0 0 1830.8 1658.5;" xml:space="preserve">
<style type="text/css">
	.st0{fill:#2D3473;}
	.st1{fill:#FFFFFF;}
	.st2{fill:#F4D147;}
	.st3{fill:#26337E;}
</style>
<g>
	<g>
		<path class="st0" d="M504.7,142.3c-17.4-18.7-13.4-47.1,15.4-50c-7.8-21.2-5.7-31.8,12.7-46.2c17.6-13.8,36.1-26.6,55.1-38.3
			c19.4-12,31.4-10,47.8,5.5c15.6,14.7,30.9,29.8,46,44.9c3.2,3.2,5.8,4.1,10.3,2.8c105.7-28.5,213.2-35.8,321.8-23.3
			c39.3,4.5,78,13.8,116.9,21.3c5,1,8,0.2,11.6-3.3c15.6-15.4,31.5-30.5,47.2-45.9c9.7-9.5,21-11.5,33.3-6.9
			c5.9,2.2,11.8,5.1,17.1,8.6c14,9.2,27.7,18.8,41.5,28.3c3.8,2.7,7.4,5.7,10.8,8.9c15.2,14.5,17.3,24.3,9.3,43.4
			c26.6,8.1,33.4,24.4,18.7,46.4c8,5.5,16.1,10.9,24,16.5c50.4,36,93.2,78.9,122.4,134.2c17.4,32.9,27.9,68.1,30.4,105.1
			c7.7,114.8-30.7,211.7-116.2,288.9c-65.6,59.1-143.3,96-227.7,119.6c-54.6,15.2-110.2,24-166.7,27.9c-95,6.5-189.2,1-282-21.2
			c-71-17-138.2-43.4-199.2-84.2c-65.9-44.2-119-99.8-148.5-174.7c-27.5-69.8-31.7-141.7-11.3-213.9c15.2-54,46.8-98.8,87.5-136.6
			c21.4-19.9,45.5-36.9,68.4-55.2C502.4,144,503.6,143.2,504.7,142.3z M1218.4,107.9c7.7,1.9,15.5,4.3,23.4,5.4
			c4,0.6,9.5,0.3,12.2-2.1c9.5-8.1,18.9-16.5,26.9-26.1c8.1-9.8,7.9-13.5-2.5-21.4c-18.6-14.1-37.9-27.3-57.5-39.9
			c-9.1-5.9-12.1-4.7-20.1,3.2c-19.6,19.1-38.9,38.4-58.6,57.5c-36.1,35-66.3,74.2-86.8,120.4c-27.6,62.4-54.9,124.9-82.3,187.4
			c-11.4,25.9-23.1,51.7-33.7,78c-7.9,19.6-14.3,39.9-14,61.6c0.3,21.3,10.4,36.9,30.7,42.9c12.6,3.7,26,5.5,39.2,6.5
			c63.9,5.3,127.7,11.4,192,7.7c53.5-3.1,106.6-8.8,158.9-20.6c8.3-1.9,17.1-3.2,25.6-2.8c13.7,0.5,24.1,7.6,30.4,20.5
			c1.4-1.3,2.2-1.9,2.8-2.7c23.4-26.5,41.9-55.9,54.7-88.9c9.9-25.6,12.1-52.7,15.9-79.5c0.7-5-2.3-5.5-6.1-6.1
			c-43.6-6.3-87.1-4.4-130.5,1.5c-74.4,10.2-146,30.5-215.7,58.3c-13.6,5.4-27,11.3-40.9,17.2c0.1-1.4-0.1-2.2,0.2-2.8
			c14.9-31,17.4-64.5,18.5-98c0.8-24.1-0.3-48.3-1-72.4c-1-36.3,7.3-70.9,19.4-104.7c4-11.1,8.3-22.2,13.5-32.7
			c5.3-10.7,13.8-15.4,24-13c18.9,4.5,36.4-0.1,53-8c23.4-11.2,47.9-17.7,73.3-21.7c6.7-1,13.4-3.2,19.4-6.4
			c2.5-1.3,3.4-6.5,3.7-10.1c0.1-0.8-5.5-3.5-8-3c-12.9,2.9-26.3,5-38.2,10.3c-9.8,4.4-18.2,6.6-27.9,1.6c-1.7-0.9-3.7-1.3-5.5-2.1
			c-9.6-4.1-17.5-2.1-24.4,5.9c-5,5.8-10.4,11.3-16.3,16c-7.3,5.9-14.2,6-21.5,1.2c2.4-2,4.8-3.8,6.9-5.8
			c12.5-12.9,25.1-25.7,37.3-38.9c6-6.5,6.7-14,1.8-21.7c-2-3.1-3.6-6.4-5.3-9.7c0.6-0.5,1.1-1,1.7-1.4c6.4,5.1,12.8,10.3,20.7,16.6
			c3.9-7.4,7.6-14.4,11.6-22c0.5,5.3,1.3,10.4,1.3,15.4c0,7.2,5.5,7.1,9.4,7.5c-2.8,3.6-5.4,7.1-8.2,10.8
			C1227,87.8,1222.2,89.6,1218.4,107.9z M423.1,579.7c11-11.4,19.5-15.1,34.4-14.2c6.6,0.4,13.2,1.7,19.6,3.2
			c60.4,13.4,121.6,21.1,183.3,21c51.7-0.1,103.4-4.3,155-7.4c16.4-1,33-3,48.8-7.1c21-5.3,31.4-21,31.8-42.7
			c0.4-19.4-4.4-37.8-11.4-55.4c-11.5-28.8-24.2-57.1-36.5-85.6c-23.9-55.1-47.8-110.3-72-165.3c-15.4-35-31.6-70.1-57.6-98.6
			c-32-35.1-66.2-68.2-99.3-102.3c-4.9-5-10.2-5.4-16.1-2.6c-3.5,1.7-7.1,3.5-10.4,5.7c-12.3,8.2-24.6,16.4-36.6,25
			c-6.2,4.4-11.8,9.6-17.4,14.8c-4.1,3.8-4.8,8.6-0.9,13.2c6.6,7.6,12.8,15.6,20.1,22.5c13,12.2,29.8,12.9,45.2,2.8
			c-3.7-16.4-6.5-17.5-22.9-10.5c-3.4-3.8-6.4-7.1-9.3-10.4c7.8,1.4,10.2-2.9,10.1-10.1c0-4,0.8-8.1,1.2-12c3.9,7,7.8,14,11.7,20.9
			c8-6.2,14.3-11.1,20.6-16c0.5,0.5,1,1.1,1.5,1.6c-0.9,1.7-1.6,3.4-2.6,5c-8.1,13.2-8.2,18,2.1,29.6c10.2,11.4,21.2,22,32,32.8
			c3,3,6.7,5.4,11.2,9c-9.5,4.1-16.1,3.4-21.7-0.8c-6-4.6-11.6-9.9-16.8-15.4c-10.4-10.9-13.5-12.6-27.1-6.6
			c-12.7,5.7-23.3,3.9-35.6-2.1c-10.7-5.2-23.5-6.3-35.5-8.6c-2.2-0.4-6.9,1.8-7.1,3.3c-0.4,2.9,0.8,6.8,2.7,9.1
			c1.8,2.3,5.3,3.6,8.3,4.4c5,1.4,10.1,2.3,15.2,3.1c22.9,3.7,45.2,9.3,66.3,19.4c18.2,8.8,37,14.5,57.9,9.7
			c9.8-2.3,17.5,2.8,22.1,11.3c4.3,8,7.7,16.5,10.9,25c13.9,36.4,24,73.5,22.9,113c-0.7,24.6-1.6,49.3-0.9,73.9
			c0.9,33.1,3.7,66,18.1,96.7c0.5,1,0.5,2.2,1,4.2c-2.1-0.8-3.5-1.1-4.7-1.7c-71.3-33.8-145.9-57-223.6-69.9
			c-48.6-8.1-97.5-10.6-146.6-3.8c-5.6,0.8-7.2,2.8-7.3,8.4c-1.1,34.8,9.4,66.6,24,97.4C392.3,539.4,406.3,560.1,423.1,579.7z
			 M911.2,561.9c-3.7,5.1-6.6,10-10.3,14.1c-13.5,14.8-31.2,21.7-50.5,23.4c-46.6,4-93.3,7.2-140.1,10.3c-37.7,2.5-75.4,1-113-2.7
			c-45.1-4.4-90.1-9.8-134.4-20.2c-5.4-1.3-11.9-0.6-17.3,1c-6.7,1.9-7.8,8.2-2.8,12.5c20.4,17.4,40,36,61.8,51.5
			c47.7,34,100.9,57.3,156.5,75.6c70.8,23.2,143.5,35.3,217.7,38.3c77.7,3.1,154.6-3.3,230.5-21.2c66.9-15.8,130.5-39.7,189.8-74.7
			c30.2-17.8,58.2-38.8,83.6-63.1c3.5-3.3,4.1-5.7,1.7-10c-5.3-9.7-11.3-12.9-24.1-10c-62.3,13.8-125.3,21.7-189,23.7
			c-66.2,2-132-4.1-197.8-10.5C947.3,597.1,924.3,587.5,911.2,561.9z M704.1,80.1c3.1,3.3,5,5.5,7,7.5c28.4,28,51.2,60.3,67.6,96.3
			c39,85.6,76.5,171.9,114.4,258c6.7,15.2,11.9,31,17.8,46.5c0.3-0.2,0.9-0.4,1-0.8c10.5-26.3,20.3-52.8,31.5-78.8
			c27.8-64.7,56.1-129.2,84.5-193.7c17.3-39.4,37.8-77,66.2-109.7c7.9-9,16.3-17.6,25.2-27.4C980.4,45.4,843,45.8,704.1,80.1z
			 M1473.5,387.8c0-0.9,0.1-1.9,0-2.8c-4.2-36-16-69.5-34.7-100.5c-34-56.4-81.9-98.4-137.7-132.3c-1.5-0.9-3.8-1.4-5.5-1.1
			c-25.1,3.8-49.7,9.1-73.1,19.8c-21,9.6-42.5,17.4-66.4,11.6c-1.6-0.4-4.8,2-5.8,3.9c-3,5.9-5.3,12.2-7.7,18.4
			c-14.9,38.5-24,77.6-21.5,119.6c1.9,30.6-0.6,61.5-1.7,92.3c-0.4,10.6-2.5,21.2-3.8,32.1c1.5-0.3,2.2-0.3,2.9-0.5
			c48.2-19,97.6-34.1,148.1-45.7c47.5-10.9,95.5-17.8,144.2-17.9C1431.6,384.7,1452.2,386.7,1473.5,387.8z M705.8,448.4
			c0.1-1.2,0.2-1.9,0.1-2.6c-7.3-41.8-8.1-84-5.4-126.1c3-47.3-11.2-90.5-28.8-133.1c-1.3-3.3-3-5.1-7.2-4
			c-14.8,3.8-29.4,1.7-43.6-3.2c-21.3-7.4-42.4-15.8-64-22.5c-10.2-3.2-21.4-8.1-32-1.5c-41.5,25.8-78.8,56.7-109.2,95.2
			c-30.2,38.3-50.2,81.1-57.2,129.7c-0.5,3.5-0.4,7-0.6,10.6C480.1,375,593.5,405.8,705.8,448.4z"/>
		<path class="st1" d="M1218.4,107.9c3.8-18.3,8.6-20.1,23.5-11.2c2.8-3.7,5.4-7.1,8.2-10.8c-3.9-0.4-9.3-0.3-9.4-7.5
			c0-5-0.8-10.1-1.3-15.4c-4,7.6-7.7,14.6-11.6,22c-7.9-6.3-14.3-11.5-20.7-16.6c-0.6,0.5-1.1,1-1.7,1.4c1.8,3.2,3.4,6.6,5.3,9.7
			c4.9,7.8,4.2,15.3-1.8,21.7c-12.2,13.2-24.8,26-37.3,38.9c-2,2.1-4.5,3.8-6.9,5.8c7.3,4.8,14.2,4.7,21.5-1.2
			c5.9-4.8,11.3-10.3,16.3-16c6.9-8,14.8-10,24.4-5.9c1.8,0.8,3.8,1.2,5.5,2.1c9.7,5.1,18.1,2.8,27.9-1.6
			c11.9-5.3,25.3-7.5,38.2-10.3c2.5-0.5,8.1,2.1,8,3c-0.3,3.5-1.2,8.7-3.7,10.1c-5.9,3.2-12.7,5.4-19.4,6.4
			c-25.4,4-50,10.5-73.3,21.7c-16.6,7.9-34.1,12.5-53,8c-10.3-2.4-18.8,2.3-24,13c-5.2,10.6-9.6,21.6-13.5,32.7
			c-12.1,33.8-20.4,68.4-19.4,104.7c0.7,24.1,1.8,48.3,1,72.4c-1.1,33.5-3.6,67-18.5,98c-0.3,0.6-0.1,1.4-0.2,2.8
			c13.9-5.9,27.3-11.8,40.9-17.2c69.6-27.7,141.3-48.1,215.7-58.3c43.4-5.9,86.9-7.8,130.5-1.5c3.8,0.5,6.8,1.1,6.1,6.1
			c-3.8,26.8-6,53.9-15.9,79.5c-12.8,33-31.4,62.4-54.7,88.9c-0.6,0.7-1.4,1.3-2.8,2.7c-6.3-12.9-16.7-20-30.4-20.5
			c-8.5-0.3-17.2,0.9-25.6,2.8c-52.3,11.9-105.5,17.6-158.9,20.6c-64.2,3.7-128.1-2.5-192-7.7c-13.2-1.1-26.6-2.8-39.2-6.5
			c-20.4-6-30.4-21.6-30.7-42.9c-0.3-21.7,6-41.9,14-61.6c10.6-26.3,22.4-52.1,33.7-78c27.4-62.5,54.7-125,82.3-187.4
			c20.4-46.2,50.6-85.5,86.8-120.4c19.7-19,39-38.4,58.6-57.5c8.1-7.9,11-9,20.1-3.2c19.6,12.7,39,25.8,57.5,39.9
			c10.4,7.9,10.6,11.6,2.5,21.4c-7.9,9.6-17.3,18-26.9,26.1c-2.7,2.3-8.2,2.6-12.2,2.1C1233.9,112.2,1226.2,109.8,1218.4,107.9z
			 M457.5,565.4c6.6,0.4,13.2,1.7,19.6,3.2c60.4,13.4,121.6,21.1,183.3,21c51.7-0.1,103.4-4.3,155-7.4c16.4-1,33-3,48.8-7.1
			c21-5.3,31.4-21,31.8-42.7c0.4-19.4-4.4-37.8-11.4-55.4c-11.5-28.8-24.2-57.1-36.5-85.6c-23.9-55.1-47.8-110.3-72-165.3
			c-15.4-35-31.6-70.1-57.6-98.6c-32-35.1-66.2-68.2-99.3-102.3c-4.9-5-10.2-5.4-16.1-2.6c-3.5,1.7-7.1,3.5-10.4,5.7
			c-12.3,8.2-24.6,16.4-36.6,25c-6.2,4.4-11.8,9.6-17.4,14.8c-4.1,3.8-4.8,8.6-0.9,13.2c6.6,7.6,12.8,15.6,20.1,22.5
			c13,12.2,29.8,12.9,45.2,2.8c-3.7-16.4-6.5-17.5-22.9-10.5c-3.4-3.8-6.4-7.1-9.3-10.4c7.8,1.4,10.2-2.9,10.1-10.1
			c0-4,0.8-8.1,1.2-12c3.9,7,7.8,14,11.7,20.9c8-6.2,14.3-11.1,20.6-16c0.5,0.5,1,1.1,1.5,1.6c-0.9,1.7-1.6,3.4-2.6,5
			c-8.1,13.2-8.2,18,2.1,29.6c10.2,11.4,21.2,22,32,32.8c3,3,6.7,5.4,11.2,9c-9.5,4.1-16.1,3.4-21.7-0.8c-6-4.6-11.6-9.9-16.8-15.4
			c-10.4-10.9-13.5-12.6-27.1-6.6c-12.7,5.7-23.3,3.9-35.6-2.1c-10.7-5.2-23.5-6.3-35.5-8.6c-2.2-0.4-6.9,1.8-7.1,3.3
			c-0.4,2.9,0.8,6.8,2.7,9.1c1.8,2.3,5.3,3.6,8.3,4.4c5,1.4,10.1,2.3,15.2,3.1c22.9,3.7,45.2,9.3,66.3,19.4
			c18.2,8.8,37,14.5,57.9,9.7c9.8-2.3,17.5,2.8,22.1,11.3c4.3,8,7.7,16.5,10.9,25c13.9,36.4,24,73.5,22.9,113
			c-0.7,24.6-1.6,49.3-0.9,73.9c0.9,33.1,3.7,66,18.1,96.7c0.5,1,0.5,2.2,1,4.2c-2.1-0.8-3.5-1.1-4.7-1.7
			c-71.3-33.8-145.9-57-223.6-69.9c-48.6-8.1-97.5-10.6-146.6-3.8c-5.6,0.8-7.2,2.8-7.3,8.4c-1.1,34.8,9.4,66.6,24,97.4
			c10.9,22.8,24.9,43.5,41.7,63C434.1,568.3,442.6,564.6,457.5,565.4z"/>
		<path class="st2" d="M911.2,561.9c13.1,25.6,36.2,35.2,62.4,37.8c65.7,6.4,131.6,12.5,197.8,10.5c63.7-1.9,126.7-9.9,189-23.7
			c12.8-2.8,18.8,0.3,24.1,10c2.3,4.3,1.7,6.6-1.7,10c-25.4,24.3-53.3,45.3-83.6,63.1c-59.3,35-122.9,58.9-189.8,74.7
			c-75.8,17.9-152.8,24.3-230.5,21.2c-74.3-3-147-15.1-217.7-38.3c-55.6-18.2-108.7-41.6-156.5-75.6c-21.8-15.5-41.4-34.1-61.8-51.5
			c-5.1-4.3-3.9-10.6,2.8-12.5c5.5-1.6,11.9-2.3,17.3-1c44.3,10.4,89.3,15.8,134.4,20.2c37.6,3.7,75.3,5.1,113,2.7
			c46.7-3,93.4-6.3,140.1-10.3c19.3-1.6,37-8.5,50.5-23.4C904.6,571.9,907.5,567,911.2,561.9z M711.1,87.6
			c28.4,28,51.2,60.3,67.6,96.3c39,85.6,76.5,171.9,114.4,258c6.7,15.2,11.9,31,17.8,46.5c0.3-0.2,0.9-0.4,1-0.8
			c10.5-26.3,20.3-52.8,31.5-78.8c27.8-64.7,56.1-129.2,84.5-193.7c17.3-39.4,37.8-77,66.2-109.7c7.9-9,16.3-17.6,25.2-27.4
			C980.4,45.4,843,45.8,704.1,80.1C707.1,83.3,709,85.5,711.1,87.6z M1473.5,385c-4.2-36-16-69.5-34.7-100.5
			c-34-56.4-81.9-98.4-137.7-132.3c-1.5-0.9-3.8-1.4-5.5-1.1c-25.1,3.8-49.7,9.1-73.1,19.8c-21,9.6-42.5,17.4-66.4,11.6
			c-1.6-0.4-4.8,2-5.8,3.9c-3,5.9-5.3,12.2-7.7,18.4c-14.9,38.5-24,77.6-21.5,119.6c1.9,30.6-0.6,61.5-1.7,92.3
			c-0.4,10.6-2.5,21.2-3.8,32.1c1.5-0.3,2.2-0.3,2.9-0.5c48.2-19,97.6-34.1,148.1-45.7c47.5-10.9,95.5-17.8,144.2-17.9
			c20.6-0.1,41.2,1.9,62.6,3C1473.5,386.9,1473.6,385.9,1473.5,385z M705.9,445.8c-7.3-41.8-8.1-84-5.4-126.1
			c3-47.3-11.2-90.5-28.8-133.1c-1.3-3.3-3-5.1-7.2-4c-14.8,3.8-29.4,1.7-43.6-3.2c-21.3-7.4-42.4-15.8-64-22.5
			c-10.2-3.2-21.4-8.1-32-1.5c-41.5,25.8-78.8,56.7-109.2,95.2c-30.2,38.3-50.2,81.1-57.2,129.7c-0.5,3.5-0.4,7-0.6,10.6
			c122.2-15.8,235.6,14.9,347.9,57.5C705.8,447.2,706,446.5,705.9,445.8z"/>
	</g>
	<path class="st3" d="M356.7,1137.8c0.3,45.5,0.1,91,0.1,136.5c0,2,0,3.9,0,6.3c-20.2,0-39.5,0-59.4,0c0-2.1,0-4.1,0-6
		c0-48,0.1-96-0.1-144c-0.1-14.8-3.5-28.9-16.3-38c-15.3-10.9-32.3-11.2-48.8-3.4c-16.7,7.9-24,22.5-24.1,40.6
		c-0.2,37.8,0,75.7,0,113.5c0,12.3,0,24.6,0,37.2c-20,0-39.6,0-59.6,0c0-2,0-3.8,0-5.6c0-48.7,0.2-97.3-0.2-146
		c-0.1-7-1.6-14.3-4.1-20.9c-5.7-14.9-17.5-22-33.1-23.4c-18.2-1.5-33.6,3.5-44.2,19.4c-5.9,8.9-7.5,19.1-7.5,29.6
		c0,46.8,0,93.7,0,140.5c0,2,0,4,0,6.3c-19.7,0-39.1,0-58.8,0c-0.1-0.9-0.3-1.7-0.3-2.5c0-51.7-0.7-103.3,0.5-155
		c0.7-29.6,12.3-55.4,35.1-75.2c21.2-18.4,46.5-25.2,74.1-24.1c27.7,1.1,50.8,12.2,70.2,35.4c0.8-1.7,1.2-3.5,2.3-4.7
		c19.2-20.6,43-30.9,71.1-30.9c26.9,0,51.3,7.1,71.4,25.9c16,15,25.3,33.8,29,55.1C355.8,1115.5,356.6,1126.7,356.7,1137.8z
		 M609.8,1389.5c21.7,0,43,0,64.4,0c0-21.4,0-42.6,0-63.8c-21.8,0-43.1,0-64.4,0C609.8,1347.3,609.8,1368.4,609.8,1389.5z
		 M893.3,1281.3c22,5.6,44.3,6.7,66.9,3.5c37.9-5.4,65.6-25.1,83.3-58.9c6.1-11.6,10-23.8,10.8-37.8c-2.4,0-4,0-5.7,0
		c-18.8,0-37.7,0.1-56.5-0.1c-5-0.1-8.3,0.5-8.2,6.6c0.1,2.7-1.1,5.5-2,8.2c-4.6,13.4-12,24.2-26.8,27.6c-4.3,1-8.9,1.4-13.3,1.8
		c-23,2-42.1-9.4-49.7-31.2c-10.1-29.1-9.7-58.7-0.6-87.8c6.2-19.9,20.2-32.3,41.8-34.1c26.3-2.3,45,7.7,51.3,35.4
		c0.3,1.4,0.8,2.8,1.2,3.9c23.3,0,46.2,0,69.6,0c-1.2-6.5-2.1-12.6-3.4-18.6c-7-33.3-26-56.1-58.8-67c-26.1-8.7-52.8-10.6-79.9-6.7
		c-39.4,5.7-69.5,25.7-85.4,62.6c-19.6,45.6-20,92.3,0.3,138.1C840.9,1255.2,863,1273.6,893.3,1281.3z M1231,1101.9
		c-0.2-9.6-3.4-17.8-13.2-21.6c-16.1-6.2-32.5-6.7-49-2c-12.8,3.6-18.6,13.7-21.8,25.7c-0.5,1.7-0.8,3.5-1.3,5.4
		c-20.8,0-41.4,0-62,0c1.2-33.1,16.5-63.4,50.3-76.7c17.2-6.7,35.1-8.9,53.3-9.2c25.5-0.4,50,3.7,73.2,14.6
		c19.7,9.2,30.2,24.9,33.3,45.9c0.9,6.1,1.2,12.3,1.2,18.4c0.1,29.8,0.1,59.7,0,89.5c-0.1,25.9-7.2,49-27.5,66.5
		c-12.6,10.9-27.4,17.5-43.5,21.3c-31,7.4-62.4,9-93.6,2.7c-34.6-7-54.9-33.2-55.1-68.6c-0.1-21.8,4.7-41.7,20.9-57.4
		c12.1-11.8,27-18.4,43.2-21.5c19.2-3.7,38.8-5.9,58.1-9.2c7-1.2,14-3,20.6-5.5C1226.4,1117.3,1231.2,1111,1231,1101.9z
		 M1229.5,1157.7c-12,7.6-25.9,9.1-39.3,12.1c-11.6,2.6-23.4,5.2-34.3,9.9c-12.4,5.3-17.7,19.1-15.3,33.8
		c2.3,14.3,9.9,22.1,24.3,24.6c14.8,2.6,28.3-1.2,41.3-8c11.7-6.1,19.6-15.6,21.7-28.3c2.3-14.3,2.6-29,3.7-43.5
		C1230.9,1158.1,1230.2,1157.9,1229.5,1157.7z M660,1274.6c0,1.9,0,3.9,0,5.9c22,0,43.2,0,64.9,0c0-1.9,0-3.6,0-5.2
		c0-37.2,0-74.3,0.1-111.5c0-8.6,0.4-17.3,1.1-25.9c1.9-22.9,13.7-38.6,33.8-44.8c11.4-3.5,23.2-4.1,35.1-3c2.7,0.3,5.5,0.4,8.4,0.5
		c0-22.2,0-43.8,0-65.5c-1.4-0.2-2.5-0.4-3.7-0.5c-16.4-0.9-32.6,0.6-48.6,4.3c-37.1,8.7-64.9,29.2-80.4,64.7
		c-8.6,19.7-11.3,40.4-11,61.9C660.4,1195.3,660,1234.9,660,1274.6z M549.4,1326.1c-4.3,0.5-8.6,1-12.8,2.1
		c-22.3,5.6-38.7,18.5-38.5,48.2c0.4,65.8,0.3,183.9,0.2,272.2h60.6c0-103.8,0-240.3,0-322.5
		C555.4,1326.1,552.3,1325.8,549.4,1326.1z M1801.9,1243.6c-12.1,17.4-28.8,28.9-48.9,35.4c-29.1,9.5-58.6,9.8-88.2,3.2
		c-37.1-8.4-62.2-31.8-75.7-66.3c-21.8-56-16.9-109.4,21.8-157.3c15.7-19.4,37.2-29.2,61.3-33.5c10.3-1.8,20.8-2.3,31.2-3.4
		c18.6,0.8,36.9,3,54.4,9.9c27,10.5,45.7,30.1,57.1,55.8C1839.1,1141.5,1836.3,1194.1,1801.9,1243.6z M1763.2,1154.7
		c-1.3-10-2-20.2-4.1-30.1c-3.1-15.2-9.7-28.8-22.9-38c-31.1-21.7-73.7-8.2-86.1,27.6c-8.7,24.9-8.6,50.5-1.6,75.7
		c7.5,27.1,24.4,40.8,52.5,42.4c21.4,1.2,38.8-6.8,49.9-26C1760.1,1190.4,1762.3,1172.8,1763.2,1154.7z M1056.9,1406.2
		c-9.9,0.9-19.8,2.3-29.5,4.6c-55.4,12.9-85.5,54.7-88.6,106.4c-1.4,24-1.3,82.2-1,131.4h65c0-40.1,0-85.5,0.1-101.2
		c0.1-9.6,0.4-19.3,1.3-28.9c2.2-24.2,14.6-40,37.1-45c10.5-2.3,21.8-1.6,32.7-2.2c2.2-0.1,4.5,0.3,6.9,0.4c0-22.2,0-43.9,0-65.6
		C1072.5,1406,1064.6,1405.5,1056.9,1406.2z M1323.9,1467.9c9.8,24.4,9.6,50,9.3,76.3c-60.3,0-120.2,0-180.6,0
		c0.6,15.7,3.9,29.8,14,41.6c10.2,12,23.3,17.9,38.9,18.7c11.7,0.6,23.3,0.7,34.5-3.5c7.1-2.7,12.6-7.3,17.4-12.9
		c1.2-1.3,3.1-2.8,4.7-2.8c21.3-0.2,42.7-0.1,64-0.1c0.6,0,1.2,0.3,2.1,0.5c-3.1,12.2-9.8,22.3-17.6,31.7
		c-20.1,24.2-46.3,36.6-77.2,40.1c-30.2,3.4-59-0.4-86.2-14.6c-33.9-17.7-52.3-45.8-57.5-83.1c-3.8-27.8-3.1-55.4,4.8-82.6
		c12.3-42.7,49-74.1,93.2-79.7c21.6-2.7,42.8-2,63.8,3.8C1287,1411,1310.4,1434.2,1323.9,1467.9z M1265.7,1501.4
		c-0.2-30.8-23.4-52.5-55.9-52.5c-34.4,0-52.2,24.3-55.2,52.5C1191.6,1501.4,1228.7,1501.4,1265.7,1501.4z M1557,952.2
		c0,77.5,0.6,155-0.4,232.4c-0.5,39.2-22.2,79-68.2,93.8c-38.4,12.3-76.8,10.5-114.2-5.1c-24.9-10.4-39.4-30.3-48.9-54.6
		c-8.6-21.9-10.6-44.8-9.5-68.2c1.1-21.4,4.3-42.4,12.8-62.2c13-30.4,34-52.6,67-60.6c26.7-6.5,52.8-5.2,75.7,12.2
		c7.3,5.6,13.3,12.9,20.2,19.6c0-5.1,0-10.6,0-16c0-16.3,0.2-32.7,0-49c-0.4-29,15.4-42.6,40.8-47.4c6.2-1.2,12.6-1,18.9-1.4
		c1.8-0.1,3.6,0.2,5.9,0.3C1557,948.3,1557,950.3,1557,952.2z M1493.5,1153.8c-0.6-4.9-1.3-14.9-3.4-24.7
		c-3.9-18.2-11.9-33.8-29.4-42.9c-25.6-13.3-55.8-3.5-68.7,22.3c-5.7,11.5-8.5,23.7-9.4,36.4c-1.5,19.6,0.2,38.9,7.7,57.3
		c7.2,17.5,19.9,28.6,39.2,30.5c20.8,2,38.6-3.4,50.6-22C1490.4,1195,1493.3,1177.3,1493.5,1153.8z M624,1214.1
		c-3.1,12.2-9.8,22.3-17.6,31.7c-20.1,24.2-46.3,36.6-77.2,40.1c-30.2,3.4-59-0.4-86.2-14.6c-33.9-17.7-52.3-45.8-57.5-83.1
		c-3.8-27.8-3.1-55.4,4.8-82.6c12.3-42.7,49-74.1,93.2-79.7c21.6-2.7,42.8-2,63.8,3.8c35.6,9.8,59,33,72.5,66.7
		c9.8,24.4,9.6,50,9.3,76.3c-60.3,0-120.2,0-180.6,0c0.6,15.7,3.9,29.8,14,41.6c10.2,12,23.3,17.9,38.9,18.7
		c11.7,0.6,23.3,0.7,34.5-3.5c7.1-2.7,12.6-7.3,17.4-12.9c1.2-1.3,3.1-2.8,4.7-2.8c21.3-0.2,42.7-0.1,64-0.1
		C622.5,1213.6,623.1,1213.9,624,1214.1z M450.4,1129.9c37.1,0,74.1,0,111.1,0c-0.2-30.8-23.4-52.5-55.9-52.5
		C471.2,1077.4,453.4,1101.7,450.4,1129.9z M892.2,1412.1c-18.6,0-28.6,7.2-33.7,24.9c-10.5,36.3-30.1,94.6-41.2,133.1
		c-16.5-58.3-35.1-99.7-51.6-157.9h-68.5l80.2,230.4c1.2,3.5,4.5,5.8,8.2,5.8h62.3c3.7,0,7-2.3,8.2-5.8l81.3-230.6
		C921.8,1412.1,907,1412.1,892.2,1412.1z M609.7,1648.6h64.8c0-79,0-181.3,0-236.1c-21.8,0-43.2,0-64.8,0
		C609.7,1467.5,609.7,1569.6,609.7,1648.6z"/>
</g>
</svg>
